<mxfile host="app.diagrams.net" modified="2024-05-28T08:13:06.423Z" agent="Mozilla/5.0 (Windows NT 10.0; Win64; x64; rv:120.0) Gecko/20100101 Firefox/120.0" etag="6XCz88r2sobrKbEniEcu" version="24.4.9" type="device">
  <diagram name="Page-1" id="fiW-tcFKX4AMrp-s7L6o">
    <mxGraphModel dx="1235" dy="633" grid="1" gridSize="10" guides="1" tooltips="1" connect="1" arrows="1" fold="1" page="1" pageScale="1" pageWidth="850" pageHeight="1100" math="0" shadow="0">
      <root>
        <mxCell id="0" />
        <mxCell id="1" parent="0" />
        <mxCell id="IHjpEYlifQd_e3KRRxIf-1" value="Main Program" style="whiteSpace=wrap;strokeWidth=2;" vertex="1" parent="1">
          <mxGeometry x="827" y="200" width="112" height="34" as="geometry" />
        </mxCell>
        <mxCell id="IHjpEYlifQd_e3KRRxIf-2" value="Blog" style="whiteSpace=wrap;strokeWidth=2;" vertex="1" parent="1">
          <mxGeometry x="261" y="302" width="45" height="34" as="geometry" />
        </mxCell>
        <mxCell id="IHjpEYlifQd_e3KRRxIf-3" value="Subscriber 1" style="whiteSpace=wrap;strokeWidth=2;" vertex="1" parent="1">
          <mxGeometry x="523" y="590" width="103" height="33" as="geometry" />
        </mxCell>
        <mxCell id="IHjpEYlifQd_e3KRRxIf-4" value="Subscriber 2" style="whiteSpace=wrap;strokeWidth=2;" vertex="1" parent="1">
          <mxGeometry x="821" y="590" width="103" height="33" as="geometry" />
        </mxCell>
        <mxCell id="IHjpEYlifQd_e3KRRxIf-5" value="Subscribe Method" style="whiteSpace=wrap;strokeWidth=2;" vertex="1" parent="1">
          <mxGeometry x="20" y="404" width="141" height="33" as="geometry" />
        </mxCell>
        <mxCell id="IHjpEYlifQd_e3KRRxIf-6" value="Article" style="whiteSpace=wrap;strokeWidth=2;" vertex="1" parent="1">
          <mxGeometry x="1871" y="302" width="63" height="33" as="geometry" />
        </mxCell>
        <mxCell id="IHjpEYlifQd_e3KRRxIf-7" value="DraftState" style="whiteSpace=wrap;strokeWidth=2;" vertex="1" parent="1">
          <mxGeometry x="1150" y="404" width="89" height="33" as="geometry" />
        </mxCell>
        <mxCell id="IHjpEYlifQd_e3KRRxIf-8" value="PublishArticle Method" style="whiteSpace=wrap;strokeWidth=2;" vertex="1" parent="1">
          <mxGeometry x="327" y="404" width="172" height="33" as="geometry" />
        </mxCell>
        <mxCell id="IHjpEYlifQd_e3KRRxIf-9" value="Notify Method" style="whiteSpace=wrap;strokeWidth=2;" vertex="1" parent="1">
          <mxGeometry x="413" y="506" width="116" height="34" as="geometry" />
        </mxCell>
        <mxCell id="IHjpEYlifQd_e3KRRxIf-10" value="ReviewState" style="whiteSpace=wrap;strokeWidth=2;" vertex="1" parent="1">
          <mxGeometry x="1291" y="404" width="103" height="33" as="geometry" />
        </mxCell>
        <mxCell id="IHjpEYlifQd_e3KRRxIf-11" value="Render Method" style="whiteSpace=wrap;strokeWidth=2;" vertex="1" parent="1">
          <mxGeometry x="1444" y="404" width="123" height="33" as="geometry" />
        </mxCell>
        <mxCell id="IHjpEYlifQd_e3KRRxIf-12" value="SaveState Method" style="whiteSpace=wrap;strokeWidth=2;" vertex="1" parent="1">
          <mxGeometry x="1616" y="404" width="143" height="33" as="geometry" />
        </mxCell>
        <mxCell id="IHjpEYlifQd_e3KRRxIf-13" value="ArticleMemento" style="whiteSpace=wrap;strokeWidth=2;" vertex="1" parent="1">
          <mxGeometry x="1623" y="506" width="129" height="33" as="geometry" />
        </mxCell>
        <mxCell id="IHjpEYlifQd_e3KRRxIf-14" value="Modify Article" style="whiteSpace=wrap;strokeWidth=2;" vertex="1" parent="1">
          <mxGeometry x="1809" y="404" width="115" height="34" as="geometry" />
        </mxCell>
        <mxCell id="IHjpEYlifQd_e3KRRxIf-15" value="PublishedState" style="whiteSpace=wrap;strokeWidth=2;" vertex="1" parent="1">
          <mxGeometry x="1984" y="404" width="121" height="33" as="geometry" />
        </mxCell>
        <mxCell id="IHjpEYlifQd_e3KRRxIf-16" value="Render Method" style="whiteSpace=wrap;strokeWidth=2;" vertex="1" parent="1">
          <mxGeometry x="2156" y="404" width="123" height="33" as="geometry" />
        </mxCell>
        <mxCell id="IHjpEYlifQd_e3KRRxIf-17" value="RestoreState Method" style="whiteSpace=wrap;strokeWidth=2;" vertex="1" parent="1">
          <mxGeometry x="2328" y="404" width="164" height="33" as="geometry" />
        </mxCell>
        <mxCell id="IHjpEYlifQd_e3KRRxIf-18" value="Render Method" style="whiteSpace=wrap;strokeWidth=2;" vertex="1" parent="1">
          <mxGeometry x="2542" y="404" width="123" height="33" as="geometry" />
        </mxCell>
        <mxCell id="IHjpEYlifQd_e3KRRxIf-19" value="PublishArticle Method" style="whiteSpace=wrap;strokeWidth=2;" vertex="1" parent="1">
          <mxGeometry x="549" y="404" width="172" height="33" as="geometry" />
        </mxCell>
        <mxCell id="IHjpEYlifQd_e3KRRxIf-20" value="Instantiate Blog" style="curved=1;startArrow=none;endArrow=block;exitX=-0.003348180225917271;exitY=0.6339045580495998;entryX=0.5128703223334419;entryY=0.0039215648875517;rounded=0;" edge="1" parent="1" source="IHjpEYlifQd_e3KRRxIf-1" target="IHjpEYlifQd_e3KRRxIf-2">
          <mxGeometry relative="1" as="geometry">
            <Array as="points">
              <mxPoint x="284" y="268" />
            </Array>
          </mxGeometry>
        </mxCell>
        <mxCell id="IHjpEYlifQd_e3KRRxIf-21" value="Instantiate Subscriber 1" style="curved=1;startArrow=none;endArrow=block;exitX=0.37220649987919174;exitY=0.9872548720415901;entryX=0.9918689542603725;entryY=0.2618429441269403;rounded=0;" edge="1" parent="1" source="IHjpEYlifQd_e3KRRxIf-1" target="IHjpEYlifQd_e3KRRxIf-3">
          <mxGeometry relative="1" as="geometry">
            <Array as="points">
              <mxPoint x="840" y="268" />
              <mxPoint x="840" y="565" />
            </Array>
          </mxGeometry>
        </mxCell>
        <mxCell id="IHjpEYlifQd_e3KRRxIf-22" value="Instantiate Subscriber 2" style="curved=1;startArrow=none;endArrow=block;exitX=0.9297957088824182;exitY=0.9872548720415901;entryX=0.9983010153168613;entryY=0.0945394987659635;rounded=0;" edge="1" parent="1" source="IHjpEYlifQd_e3KRRxIf-1" target="IHjpEYlifQd_e3KRRxIf-4">
          <mxGeometry relative="1" as="geometry">
            <Array as="points">
              <mxPoint x="1030" y="268" />
              <mxPoint x="1030" y="565" />
            </Array>
          </mxGeometry>
        </mxCell>
        <mxCell id="IHjpEYlifQd_e3KRRxIf-23" value="Subscribe Subscriber 1" style="curved=1;startArrow=none;endArrow=block;exitX=0.008611085679796007;exitY=0.6452419408910894;entryX=0.4147345620426836;entryY=0.010606014367305872;rounded=0;" edge="1" parent="1" source="IHjpEYlifQd_e3KRRxIf-2" target="IHjpEYlifQd_e3KRRxIf-5">
          <mxGeometry relative="1" as="geometry">
            <Array as="points">
              <mxPoint x="53" y="370" />
            </Array>
          </mxGeometry>
        </mxCell>
        <mxCell id="IHjpEYlifQd_e3KRRxIf-24" value="Subscribe Subscriber 2" style="curved=1;startArrow=none;endArrow=block;exitX=0.14675435001920378;exitY=0.9911764369291418;entryX=0.8336802837051439;entryY=0.010606014367305872;rounded=0;" edge="1" parent="1" source="IHjpEYlifQd_e3KRRxIf-2" target="IHjpEYlifQd_e3KRRxIf-5">
          <mxGeometry relative="1" as="geometry">
            <Array as="points">
              <mxPoint x="234" y="370" />
            </Array>
          </mxGeometry>
        </mxCell>
        <mxCell id="IHjpEYlifQd_e3KRRxIf-25" value="Instantiate Article" style="curved=1;startArrow=none;endArrow=block;exitX=0.9947172914232526;exitY=0.5759221190304362;entryX=0.5015210953969804;entryY=0.0065656141801313924;rounded=0;" edge="1" parent="1" source="IHjpEYlifQd_e3KRRxIf-1" target="IHjpEYlifQd_e3KRRxIf-6">
          <mxGeometry relative="1" as="geometry">
            <Array as="points">
              <mxPoint x="1903" y="268" />
            </Array>
          </mxGeometry>
        </mxCell>
        <mxCell id="IHjpEYlifQd_e3KRRxIf-26" value="Render Draft State" style="curved=1;startArrow=none;endArrow=block;exitX=0.0020501878526475695;exitY=0.581449884163546;entryX=0.5065074663483695;entryY=0.010606014367305872;rounded=0;" edge="1" parent="1" source="IHjpEYlifQd_e3KRRxIf-6" target="IHjpEYlifQd_e3KRRxIf-7">
          <mxGeometry relative="1" as="geometry">
            <Array as="points">
              <mxPoint x="1195" y="370" />
            </Array>
          </mxGeometry>
        </mxCell>
        <mxCell id="IHjpEYlifQd_e3KRRxIf-27" value="Publish Article" style="curved=1;startArrow=none;endArrow=block;exitX=1.0171295589870877;exitY=0.7616481260167401;entryX=0.5007509519887525;entryY=0.010606014367305872;rounded=0;" edge="1" parent="1" source="IHjpEYlifQd_e3KRRxIf-2" target="IHjpEYlifQd_e3KRRxIf-8">
          <mxGeometry relative="1" as="geometry">
            <Array as="points">
              <mxPoint x="413" y="370" />
            </Array>
          </mxGeometry>
        </mxCell>
        <mxCell id="IHjpEYlifQd_e3KRRxIf-28" value="Notify Subscribers" style="curved=1;startArrow=none;endArrow=block;exitX=0.5007509519887525;exitY=1.0227272727272727;entryX=0.3358453676746252;entryY=0.011764694662655102;rounded=0;" edge="1" parent="1" source="IHjpEYlifQd_e3KRRxIf-8" target="IHjpEYlifQd_e3KRRxIf-9">
          <mxGeometry relative="1" as="geometry">
            <Array as="points">
              <mxPoint x="413" y="472" />
            </Array>
          </mxGeometry>
        </mxCell>
        <mxCell id="IHjpEYlifQd_e3KRRxIf-29" value="" style="curved=1;startArrow=none;endArrow=block;exitX=0.4650854668688145;exitY=0.9990195667042452;entryX=0.05480605542332284;entryY=-0.0010101433956261837;rounded=0;" edge="1" parent="1" source="IHjpEYlifQd_e3KRRxIf-9" target="IHjpEYlifQd_e3KRRxIf-3">
          <mxGeometry relative="1" as="geometry">
            <Array as="points">
              <mxPoint x="461" y="565" />
            </Array>
          </mxGeometry>
        </mxCell>
        <mxCell id="IHjpEYlifQd_e3KRRxIf-30" value="" style="curved=1;startArrow=none;endArrow=block;exitX=0.9997845024898134;exitY=0.7832265915223033;entryX=0.0020226784122800365;entryY=0.05780919683427948;rounded=0;" edge="1" parent="1" source="IHjpEYlifQd_e3KRRxIf-9" target="IHjpEYlifQd_e3KRRxIf-4">
          <mxGeometry relative="1" as="geometry">
            <Array as="points">
              <mxPoint x="728" y="565" />
            </Array>
          </mxGeometry>
        </mxCell>
        <mxCell id="IHjpEYlifQd_e3KRRxIf-31" value="Set Review State" style="curved=1;startArrow=none;endArrow=block;exitX=0.0020501878526475695;exitY=0.5995201067120766;entryX=0.4972086971245923;entryY=0.010606014367305872;rounded=0;" edge="1" parent="1" source="IHjpEYlifQd_e3KRRxIf-6" target="IHjpEYlifQd_e3KRRxIf-10">
          <mxGeometry relative="1" as="geometry">
            <Array as="points">
              <mxPoint x="1342" y="370" />
            </Array>
          </mxGeometry>
        </mxCell>
        <mxCell id="IHjpEYlifQd_e3KRRxIf-32" value="Render Review State" style="curved=1;startArrow=none;endArrow=block;exitX=0.0020501878526475695;exitY=0.6350829100702036;entryX=0.4955623130488202;entryY=0.010606014367305872;rounded=0;" edge="1" parent="1" source="IHjpEYlifQd_e3KRRxIf-6" target="IHjpEYlifQd_e3KRRxIf-11">
          <mxGeometry relative="1" as="geometry">
            <Array as="points">
              <mxPoint x="1505" y="370" />
            </Array>
          </mxGeometry>
        </mxCell>
        <mxCell id="IHjpEYlifQd_e3KRRxIf-33" value="Save State" style="curved=1;startArrow=none;endArrow=block;exitX=0.0020501878526475695;exitY=0.7390742668948863;entryX=0.5004370495989606;entryY=0.010606014367305872;rounded=0;" edge="1" parent="1" source="IHjpEYlifQd_e3KRRxIf-6" target="IHjpEYlifQd_e3KRRxIf-12">
          <mxGeometry relative="1" as="geometry">
            <Array as="points">
              <mxPoint x="1688" y="370" />
            </Array>
          </mxGeometry>
        </mxCell>
        <mxCell id="IHjpEYlifQd_e3KRRxIf-34" value="" style="curved=1;startArrow=none;endArrow=block;exitX=0.5004370495989606;exitY=1.0227272727272727;entryX=0.5004844813383826;entryY=0.01464641455448035;rounded=0;" edge="1" parent="1" source="IHjpEYlifQd_e3KRRxIf-12" target="IHjpEYlifQd_e3KRRxIf-13">
          <mxGeometry relative="1" as="geometry">
            <Array as="points" />
          </mxGeometry>
        </mxCell>
        <mxCell id="IHjpEYlifQd_e3KRRxIf-35" value="Modify Title and Content" style="curved=1;startArrow=none;endArrow=block;exitX=0.3136123519991723;exitY=1.0186868725400982;entryX=0.4990941752558169;entryY=0.0078431297751034;rounded=0;" edge="1" parent="1" source="IHjpEYlifQd_e3KRRxIf-6" target="IHjpEYlifQd_e3KRRxIf-14">
          <mxGeometry relative="1" as="geometry">
            <Array as="points">
              <mxPoint x="1866" y="370" />
            </Array>
          </mxGeometry>
        </mxCell>
        <mxCell id="IHjpEYlifQd_e3KRRxIf-36" value="Set Published State" style="curved=1;startArrow=none;endArrow=block;exitX=1.0009920029413133;exitY=0.8554000317247716;entryX=0.5012740615970832;entryY=0.010606014367305872;rounded=0;" edge="1" parent="1" source="IHjpEYlifQd_e3KRRxIf-6" target="IHjpEYlifQd_e3KRRxIf-15">
          <mxGeometry relative="1" as="geometry">
            <Array as="points">
              <mxPoint x="2045" y="370" />
            </Array>
          </mxGeometry>
        </mxCell>
        <mxCell id="IHjpEYlifQd_e3KRRxIf-37" value="Render Published State" style="curved=1;startArrow=none;endArrow=block;exitX=1.0009920029413133;exitY=0.6675172909172219;entryX=0.49569778132244824;entryY=0.010606014367305872;rounded=0;" edge="1" parent="1" source="IHjpEYlifQd_e3KRRxIf-6" target="IHjpEYlifQd_e3KRRxIf-16">
          <mxGeometry relative="1" as="geometry">
            <Array as="points">
              <mxPoint x="2217" y="370" />
            </Array>
          </mxGeometry>
        </mxCell>
        <mxCell id="IHjpEYlifQd_e3KRRxIf-38" value="Restore State" style="curved=1;startArrow=none;endArrow=block;exitX=1.0009920029413133;exitY=0.6085684592660738;entryX=0.5007875837930819;entryY=0.010606014367305872;rounded=0;" edge="1" parent="1" source="IHjpEYlifQd_e3KRRxIf-6" target="IHjpEYlifQd_e3KRRxIf-17">
          <mxGeometry relative="1" as="geometry">
            <Array as="points">
              <mxPoint x="2410" y="370" />
            </Array>
          </mxGeometry>
        </mxCell>
        <mxCell id="IHjpEYlifQd_e3KRRxIf-39" value="" style="curved=1;startArrow=none;endArrow=block;exitX=1.0001778369996606;exitY=0.0842484052754156;entryX=1.0009920029413133;entryY=0.5734460684121935;rounded=0;" edge="1" parent="1" source="IHjpEYlifQd_e3KRRxIf-17" target="IHjpEYlifQd_e3KRRxIf-6">
          <mxGeometry relative="1" as="geometry">
            <Array as="points">
              <mxPoint x="2703" y="370" />
            </Array>
          </mxGeometry>
        </mxCell>
        <mxCell id="IHjpEYlifQd_e3KRRxIf-40" value="Render Restored State" style="curved=1;startArrow=none;endArrow=block;exitX=1.0009920029413133;exitY=0.5821202515949011;entryX=0.49827236082495713;entryY=0.010606014367305872;rounded=0;" edge="1" parent="1" source="IHjpEYlifQd_e3KRRxIf-6" target="IHjpEYlifQd_e3KRRxIf-18">
          <mxGeometry relative="1" as="geometry">
            <Array as="points">
              <mxPoint x="2603" y="370" />
            </Array>
          </mxGeometry>
        </mxCell>
        <mxCell id="IHjpEYlifQd_e3KRRxIf-41" value="Publish Modified Article" style="curved=1;startArrow=none;endArrow=block;exitX=1.0171295589870877;exitY=0.5947640936842049;entryX=0.49803781509399414;entryY=0.010606014367305872;rounded=0;" edge="1" parent="1" source="IHjpEYlifQd_e3KRRxIf-2" target="IHjpEYlifQd_e3KRRxIf-19">
          <mxGeometry relative="1" as="geometry">
            <Array as="points">
              <mxPoint x="635" y="370" />
            </Array>
          </mxGeometry>
        </mxCell>
        <mxCell id="IHjpEYlifQd_e3KRRxIf-42" value="Notify Subscribers" style="curved=1;startArrow=none;endArrow=block;exitX=0.49803781509399414;exitY=1.0227272727272727;entryX=0.9635015398924838;entryY=0.011764694662655102;rounded=0;" edge="1" parent="1" source="IHjpEYlifQd_e3KRRxIf-19" target="IHjpEYlifQd_e3KRRxIf-9">
          <mxGeometry relative="1" as="geometry">
            <Array as="points">
              <mxPoint x="635" y="472" />
            </Array>
          </mxGeometry>
        </mxCell>
      </root>
    </mxGraphModel>
  </diagram>
</mxfile>
